<svg width="1024" height="868" viewBox="0 0 1024 868" fill="none" xmlns="http://www.w3.org/2000/svg">
<rect x="-1" y="230" width="1024" height="453" fill="url(#paint0_linear_57_6)"/>
<g clip-path="url(#clip0_57_6)">
<path d="M1024 92L981.333 107.349C938.667 122.51 853.333 153.49 768 149.5C682.667 145.51 597.333 107.49 512 99.651C426.667 92 341.333 115 256 111.151C170.667 107.49 85.3333 76.5102 0 88.151C-85.3334 99.5102 -170.667 153.49 -256 180.151C-341.333 207 -426.667 207 -512 207C-597.333 207 -682.667 207 -768 187.849C-853.333 168.51 -938.667 130.49 -1024 111.151C-1109.33 92 -1194.67 92 -1280 107.349C-1365.33 122.51 -1450.67 153.49 -1536 172.5C-1621.33 191.51 -1706.67 199.49 -1792 195.5C-1877.33 191.51 -1962.67 176.49 -2048 161C-2133.33 145.51 -2218.67 130.49 -2304 107.349C-2389.33 84.4898 -2474.67 53.5102 -2560 65.151C-2645.33 76.5102 -2730.67 130.49 -2816 130.349C-2901.33 130.49 -2986.67 76.5102 -3072 76.651C-3157.33 76.5102 -3242.67 130.49 -3328 157.151C-3413.33 184 -3498.67 184 -3584 180.151C-3669.33 176.49 -3754.67 168.51 -3840 168.651C-3925.33 168.51 -4010.67 176.49 -4096 168.651C-4181.33 161 -4266.67 138 -4352 111.151C-4437.33 84.4898 -4522.67 53.5102 -4608 53.651C-4693.33 53.5102 -4778.67 84.4898 -4864 107.349C-4949.33 130.49 -5034.67 145.51 -5077.33 153.349L-5120 161V230H-5077.33C-5034.67 230 -4949.33 230 -4864 230C-4778.67 230 -4693.33 230 -4608 230C-4522.67 230 -4437.33 230 -4352 230C-4266.67 230 -4181.33 230 -4096 230C-4010.67 230 -3925.33 230 -3840 230C-3754.67 230 -3669.33 230 -3584 230C-3498.67 230 -3413.33 230 -3328 230C-3242.67 230 -3157.33 230 -3072 230C-2986.67 230 -2901.33 230 -2816 230C-2730.67 230 -2645.33 230 -2560 230C-2474.67 230 -2389.33 230 -2304 230C-2218.67 230 -2133.33 230 -2048 230C-1962.67 230 -1877.33 230 -1792 230C-1706.67 230 -1621.33 230 -1536 230C-1450.67 230 -1365.33 230 -1280 230C-1194.67 230 -1109.33 230 -1024 230C-938.667 230 -853.333 230 -768 230C-682.667 230 -597.333 230 -512 230C-426.667 230 -341.333 230 -256 230C-170.667 230 -85.3334 230 0 230C85.3333 230 170.667 230 256 230C341.333 230 426.667 230 512 230C597.333 230 682.667 230 768 230C853.333 230 938.667 230 981.333 230H1024V92Z" fill="url(#paint1_linear_57_6)"/>
</g>
<path d="M168.012 131.97C168.037 131.586 167.637 131.319 167.291 131.489L140.876 144.511C140.531 144.682 140.5 145.162 140.82 145.376L165.305 161.741C165.625 161.955 166.056 161.742 166.082 161.358L168.012 131.97Z" stroke="white"/>
<rect x="141.939" y="67.7231" width="32.3886" height="32.3886" rx="2" transform="rotate(-25.0687 141.939 67.7231)" fill="white" fill-opacity="0.6"/>
<rect x="49.6506" y="86.1208" width="26.2696" height="26.2696" rx="8" transform="rotate(-25.0687 49.6506 86.1208)" fill="white" fill-opacity="0.6"/>
<path d="M9.12401 96.046C7.52074 92.6185 8.99956 88.5402 12.4271 86.9369C15.8545 85.3337 19.9328 86.8125 21.5361 90.24C23.1393 93.6675 21.6605 97.7457 18.233 99.349C14.8055 100.952 10.7273 99.4734 9.12401 96.046Z" fill="white" fill-opacity="0.6" stroke="white"/>
<path d="M-14.4418 227.653C-16.0451 224.226 -14.5662 220.148 -11.1387 218.544C-7.71125 216.941 -3.63301 218.42 -2.02973 221.848C-0.426462 225.275 -1.90529 229.353 -5.33278 230.957C-8.76027 232.56 -12.8385 231.081 -14.4418 227.653Z" fill="white" fill-opacity="0.6" stroke="white"/>
<path d="M352.508 171.206C351.971 169.763 353.197 168.28 354.715 168.536L407.654 177.474C409.172 177.73 409.843 179.533 408.862 180.72L374.653 222.097C373.672 223.284 371.774 222.964 371.237 221.521L352.508 171.206Z" fill="white" fill-opacity="0.6"/>
<path d="M613.012 169.97C613.037 169.586 612.637 169.319 612.291 169.489L585.876 182.511C585.531 182.682 585.5 183.162 585.82 183.376L610.305 199.741C610.625 199.955 611.056 199.742 611.082 199.358L613.012 169.97Z" stroke="white"/>
<rect x="586.939" y="105.723" width="32.3886" height="32.3886" rx="2" transform="rotate(-25.0687 586.939 105.723)" fill="white" fill-opacity="0.6"/>
<rect x="494.651" y="124.121" width="26.2696" height="26.2696" rx="8" transform="rotate(-25.0687 494.651 124.121)" fill="white" fill-opacity="0.6"/>
<path d="M454.124 134.046C452.521 130.618 454 126.54 457.427 124.937C460.855 123.334 464.933 124.812 466.536 128.24C468.139 131.667 466.66 135.746 463.233 137.349C459.806 138.952 455.727 137.473 454.124 134.046Z" fill="white" fill-opacity="0.6" stroke="white"/>
<path d="M430.558 265.653C428.955 262.226 430.434 258.148 433.861 256.544C437.289 254.941 441.367 256.42 442.97 259.848C444.574 263.275 443.095 267.353 439.667 268.957C436.24 270.56 432.162 269.081 430.558 265.653Z" fill="white" fill-opacity="0.6" stroke="white"/>
<path d="M333.508 358.206C332.971 356.763 334.197 355.28 335.715 355.536L388.654 364.474C390.172 364.73 390.843 366.533 389.862 367.72L355.653 409.097C354.672 410.284 352.774 409.964 352.237 408.521L333.508 358.206Z" fill="white" fill-opacity="0.6"/>
<path d="M593.513 356.938L567.097 369.96L591.583 386.325L593.513 356.938Z" stroke="white" stroke-opacity="0.6" stroke-width="2"/>
<rect x="567.939" y="292.723" width="32.3886" height="32.3886" rx="2" transform="rotate(-25.0687 567.939 292.723)" fill="white" fill-opacity="0.6"/>
<rect x="475.651" y="311.121" width="26.2696" height="26.2696" rx="8" transform="rotate(-25.0687 475.651 311.121)" fill="white" fill-opacity="0.6"/>
<path d="M434.671 321.258C432.951 317.58 434.538 313.204 438.215 311.484C441.893 309.764 446.269 311.351 447.989 315.028C449.709 318.706 448.122 323.082 444.445 324.802C440.767 326.522 436.391 324.935 434.671 321.258Z" fill="white" fill-opacity="0.6"/>
<path d="M435.577 320.834C434.091 317.657 435.462 313.876 438.639 312.39C441.816 310.904 445.597 312.274 447.083 315.452C448.569 318.629 447.199 322.41 444.021 323.896C440.844 325.382 437.063 324.011 435.577 320.834Z" stroke="white" stroke-opacity="0.6" stroke-width="2"/>
<path d="M411.105 452.865C409.385 449.188 410.972 444.812 414.649 443.092C418.327 441.371 422.703 442.958 424.423 446.636C426.143 450.313 424.557 454.689 420.879 456.409C417.201 458.13 412.826 456.543 411.105 452.865Z" fill="white" fill-opacity="0.6"/>
<path d="M412.011 452.442C410.525 449.264 411.896 445.484 415.073 443.997C418.251 442.511 422.031 443.882 423.517 447.059C425.004 450.237 423.633 454.017 420.455 455.504C417.278 456.99 413.497 455.619 412.011 452.442Z" stroke="white" stroke-opacity="0.6" stroke-width="2"/>
<path d="M441.508 601.206C440.971 599.763 442.197 598.28 443.715 598.536L496.654 607.474C498.172 607.73 498.843 609.533 497.862 610.72L463.653 652.097C462.672 653.284 460.774 652.964 460.237 651.521L441.508 601.206Z" fill="white" fill-opacity="0.6"/>
<path d="M701.513 599.938L675.097 612.96L699.583 629.325L701.513 599.938Z" stroke="white" stroke-opacity="0.6" stroke-width="2"/>
<rect x="675.939" y="535.723" width="32.3886" height="32.3886" rx="2" transform="rotate(-25.0687 675.939 535.723)" fill="white" fill-opacity="0.6"/>
<rect x="583.651" y="554.121" width="26.2696" height="26.2696" rx="8" transform="rotate(-25.0687 583.651 554.121)" fill="white" fill-opacity="0.6"/>
<path d="M542.671 564.258C540.951 560.58 542.538 556.204 546.215 554.484C549.893 552.764 554.269 554.351 555.989 558.028C557.709 561.706 556.122 566.082 552.445 567.802C548.767 569.522 544.391 567.935 542.671 564.258Z" fill="white" fill-opacity="0.6"/>
<path d="M543.577 563.834C542.091 560.657 543.462 556.876 546.639 555.39C549.816 553.904 553.597 555.274 555.083 558.452C556.569 561.629 555.199 565.41 552.021 566.896C548.844 568.382 545.063 567.011 543.577 563.834Z" stroke="white" stroke-opacity="0.6" stroke-width="2"/>
<path d="M519.105 695.865C517.385 692.188 518.972 687.812 522.649 686.092C526.327 684.371 530.703 685.958 532.423 689.636C534.143 693.313 532.557 697.689 528.879 699.41C525.201 701.13 520.826 699.543 519.105 695.865Z" fill="white" fill-opacity="0.6"/>
<path d="M520.011 695.442C518.525 692.264 519.896 688.484 523.073 686.998C526.251 685.511 530.031 686.882 531.517 690.06C533.004 693.237 531.633 697.017 528.455 698.504C525.278 699.99 521.497 698.619 520.011 695.442Z" stroke="white" stroke-opacity="0.6" stroke-width="2"/>
<g clip-path="url(#clip1_57_6)">
<path d="M1024 815L981.333 799.651C938.667 784.49 853.333 753.51 768 757.5C682.667 761.49 597.333 799.51 512 807.349C426.667 815 341.333 792 256 795.849C170.667 799.51 85.3333 830.49 0 818.849C-85.3334 807.49 -170.667 753.51 -256 726.849C-341.333 700 -426.667 700 -512 700C-597.333 700 -682.667 700 -768 719.151C-853.333 738.49 -938.667 776.51 -1024 795.849C-1109.33 815 -1194.67 815 -1280 799.651C-1365.33 784.49 -1450.67 753.51 -1536 734.5C-1621.33 715.49 -1706.67 707.51 -1792 711.5C-1877.33 715.49 -1962.67 730.51 -2048 746C-2133.33 761.49 -2218.67 776.51 -2304 799.651C-2389.33 822.51 -2474.67 853.49 -2560 841.849C-2645.33 830.49 -2730.67 776.51 -2816 776.651C-2901.33 776.51 -2986.67 830.49 -3072 830.349C-3157.33 830.49 -3242.67 776.51 -3328 749.849C-3413.33 723 -3498.67 723 -3584 726.849C-3669.33 730.51 -3754.67 738.49 -3840 738.349C-3925.33 738.49 -4010.67 730.51 -4096 738.349C-4181.33 746 -4266.67 769 -4352 795.849C-4437.33 822.51 -4522.67 853.49 -4608 853.349C-4693.33 853.49 -4778.67 822.51 -4864 799.651C-4949.33 776.51 -5034.67 761.49 -5077.33 753.651L-5120 746V677H-5077.33C-5034.67 677 -4949.33 677 -4864 677C-4778.67 677 -4693.33 677 -4608 677C-4522.67 677 -4437.33 677 -4352 677C-4266.67 677 -4181.33 677 -4096 677C-4010.67 677 -3925.33 677 -3840 677C-3754.67 677 -3669.33 677 -3584 677C-3498.67 677 -3413.33 677 -3328 677C-3242.67 677 -3157.33 677 -3072 677C-2986.67 677 -2901.33 677 -2816 677C-2730.67 677 -2645.33 677 -2560 677C-2474.67 677 -2389.33 677 -2304 677C-2218.67 677 -2133.33 677 -2048 677C-1962.67 677 -1877.33 677 -1792 677C-1706.67 677 -1621.33 677 -1536 677C-1450.67 677 -1365.33 677 -1280 677C-1194.67 677 -1109.33 677 -1024 677C-938.667 677 -853.333 677 -768 677C-682.667 677 -597.333 677 -512 677C-426.667 677 -341.333 677 -256 677C-170.667 677 -85.3334 677 0 677C85.3333 677 170.667 677 256 677C341.333 677 426.667 677 512 677C597.333 677 682.667 677 768 677C853.333 677 938.667 677 981.333 677H1024V815Z" fill="url(#paint2_linear_57_6)"/>
<path d="M429.508 781.206C428.971 779.763 430.197 778.28 431.715 778.536L484.654 787.473C486.172 787.73 486.843 789.533 485.862 790.72L451.653 832.097C450.672 833.284 448.774 832.964 448.237 831.521L429.508 781.206Z" fill="white" fill-opacity="0.6"/>
<path d="M689.513 779.938L663.097 792.96L687.583 809.325L689.513 779.938Z" stroke="white" stroke-opacity="0.6" stroke-width="2"/>
<rect x="663.939" y="715.723" width="32.3886" height="32.3886" rx="2" transform="rotate(-25.0687 663.939 715.723)" fill="white" fill-opacity="0.6"/>
<rect x="571.651" y="734.121" width="26.2696" height="26.2696" rx="8" transform="rotate(-25.0687 571.651 734.121)" fill="white" fill-opacity="0.6"/>
<path d="M530.671 744.258C528.951 740.58 530.538 736.204 534.215 734.484C537.893 732.764 542.269 734.351 543.989 738.028C545.709 741.706 544.122 746.082 540.445 747.802C536.767 749.522 532.391 747.935 530.671 744.258Z" fill="white" fill-opacity="0.6"/>
<path d="M531.577 743.834C530.091 740.657 531.462 736.876 534.639 735.39C537.816 733.904 541.597 735.274 543.083 738.452C544.569 741.629 543.199 745.41 540.021 746.896C536.844 748.382 533.063 747.011 531.577 743.834Z" stroke="white" stroke-opacity="0.6" stroke-width="2"/>
<path d="M507.105 875.865C505.385 872.188 506.972 867.812 510.649 866.092C514.327 864.371 518.703 865.958 520.423 869.636C522.143 873.313 520.557 877.689 516.879 879.41C513.201 881.13 508.826 879.543 507.105 875.865Z" fill="white" fill-opacity="0.6"/>
<path d="M508.011 875.442C506.525 872.264 507.896 868.484 511.073 866.998C514.251 865.511 518.031 866.882 519.517 870.06C521.004 873.237 519.633 877.017 516.455 878.504C513.278 879.99 509.497 878.619 508.011 875.442Z" stroke="white" stroke-opacity="0.6" stroke-width="2"/>
</g>
<path d="M869.508 657.206C868.971 655.763 870.197 654.28 871.715 654.536L924.654 663.473C926.172 663.73 926.843 665.533 925.862 666.72L891.653 708.097C890.672 709.284 888.774 708.964 888.237 707.521L869.508 657.206Z" fill="white" fill-opacity="0.6"/>
<rect x="1011.65" y="610.121" width="26.2696" height="26.2696" rx="8" transform="rotate(-25.0687 1011.65 610.121)" fill="white" fill-opacity="0.6"/>
<path d="M970.671 620.258C968.951 616.58 970.538 612.204 974.215 610.484C977.893 608.764 982.269 610.351 983.989 614.028C985.709 617.706 984.122 622.082 980.445 623.802C976.767 625.522 972.391 623.935 970.671 620.258Z" fill="white" fill-opacity="0.6"/>
<path d="M971.577 619.834C970.091 616.657 971.462 612.876 974.639 611.39C977.816 609.904 981.597 611.274 983.083 614.452C984.569 617.629 983.199 621.41 980.021 622.896C976.844 624.382 973.063 623.011 971.577 619.834Z" stroke="white" stroke-opacity="0.6" stroke-width="2"/>
<path d="M947.105 751.865C945.385 748.188 946.972 743.812 950.649 742.092C954.327 740.371 958.703 741.958 960.423 745.636C962.143 749.313 960.557 753.689 956.879 755.41C953.201 757.13 948.826 755.543 947.105 751.865Z" fill="white" fill-opacity="0.6"/>
<path d="M948.011 751.442C946.525 748.264 947.896 744.484 951.073 742.998C954.251 741.511 958.031 742.882 959.517 746.06C961.004 749.237 959.633 753.017 956.455 754.504C953.278 755.99 949.497 754.619 948.011 751.442Z" stroke="white" stroke-opacity="0.6" stroke-width="2"/>
<path d="M836.508 380.206C835.971 378.763 837.197 377.28 838.715 377.536L891.654 386.474C893.172 386.73 893.843 388.533 892.862 389.72L858.653 431.097C857.672 432.284 855.774 431.964 855.237 430.521L836.508 380.206Z" fill="white" fill-opacity="0.6"/>
<rect x="978.651" y="333.121" width="26.2696" height="26.2696" rx="8" transform="rotate(-25.0687 978.651 333.121)" fill="white" fill-opacity="0.6"/>
<path d="M937.671 343.258C935.951 339.58 937.538 335.204 941.215 333.484C944.893 331.764 949.269 333.351 950.989 337.028C952.709 340.706 951.122 345.082 947.445 346.802C943.767 348.522 939.391 346.935 937.671 343.258Z" fill="white" fill-opacity="0.6"/>
<path d="M938.577 342.834C937.091 339.657 938.462 335.876 941.639 334.39C944.816 332.904 948.597 334.274 950.083 337.452C951.569 340.629 950.199 344.41 947.021 345.896C943.844 347.382 940.063 346.011 938.577 342.834Z" stroke="white" stroke-opacity="0.6" stroke-width="2"/>
<path d="M914.105 474.865C912.385 471.188 913.972 466.812 917.649 465.092C921.327 463.371 925.703 464.958 927.423 468.636C929.143 472.313 927.557 476.689 923.879 478.409C920.201 480.13 915.826 478.543 914.105 474.865Z" fill="white" fill-opacity="0.6"/>
<path d="M915.011 474.442C913.525 471.264 914.896 467.484 918.073 465.997C921.251 464.511 925.031 465.882 926.517 469.059C928.004 472.237 926.633 476.017 923.455 477.504C920.278 478.99 916.497 477.619 915.011 474.442Z" stroke="white" stroke-opacity="0.6" stroke-width="2"/>
<path d="M742.508 162.206C741.971 160.763 743.197 159.28 744.715 159.536L797.654 168.474C799.172 168.73 799.843 170.533 798.862 171.72L764.653 213.097C763.672 214.284 761.774 213.964 761.237 212.521L742.508 162.206Z" fill="white" fill-opacity="0.6"/>
<path d="M1002.51 160.938L976.097 173.96L1000.58 190.325L1002.51 160.938Z" stroke="white" stroke-opacity="0.6" stroke-width="2"/>
<rect x="976.939" y="96.7231" width="32.3886" height="32.3886" rx="2" transform="rotate(-25.0687 976.939 96.7231)" fill="white" fill-opacity="0.6"/>
<rect x="884.651" y="115.121" width="26.2696" height="26.2696" rx="8" transform="rotate(-25.0687 884.651 115.121)" fill="white" fill-opacity="0.6"/>
<path d="M843.671 125.258C841.951 121.58 843.538 117.204 847.215 115.484C850.893 113.764 855.269 115.351 856.989 119.028C858.709 122.706 857.122 127.082 853.445 128.802C849.767 130.522 845.391 128.935 843.671 125.258Z" fill="white" fill-opacity="0.6"/>
<path d="M844.577 124.834C843.091 121.657 844.462 117.876 847.639 116.39C850.816 114.904 854.597 116.274 856.083 119.452C857.569 122.629 856.199 126.41 853.021 127.896C849.844 129.382 846.063 128.011 844.577 124.834Z" stroke="white" stroke-opacity="0.6" stroke-width="2"/>
<path d="M820.105 256.865C818.385 253.188 819.972 248.812 823.649 247.092C827.327 245.371 831.703 246.958 833.423 250.636C835.143 254.313 833.557 258.689 829.879 260.409C826.201 262.13 821.826 260.543 820.105 256.865Z" fill="white" fill-opacity="0.6"/>
<path d="M821.011 256.442C819.525 253.264 820.896 249.484 824.073 247.997C827.251 246.511 831.031 247.882 832.517 251.059C834.004 254.237 832.633 258.017 829.455 259.504C826.278 260.99 822.497 259.619 821.011 256.442Z" stroke="white" stroke-opacity="0.6" stroke-width="2"/>
<path d="M42.508 691.056C41.9709 689.613 43.1972 688.13 44.7153 688.387L97.6539 697.324C99.172 697.58 99.8434 699.384 98.8623 700.57L64.653 741.948C63.672 743.134 61.7743 742.814 61.2372 741.371L42.508 691.056Z" fill="white" fill-opacity="0.6"/>
<path d="M302.513 689.788L276.097 702.81L300.583 719.176L302.513 689.788Z" stroke="white" stroke-opacity="0.6" stroke-width="2"/>
<rect x="276.939" y="625.574" width="32.3886" height="32.3886" rx="2" transform="rotate(-25.0687 276.939 625.574)" fill="white" fill-opacity="0.6"/>
<rect x="184.651" y="643.971" width="26.2696" height="26.2696" rx="8" transform="rotate(-25.0687 184.651 643.971)" fill="white" fill-opacity="0.6"/>
<path d="M143.671 654.108C141.951 650.431 143.538 646.055 147.215 644.335C150.893 642.614 155.269 644.201 156.989 647.879C158.709 651.556 157.122 655.932 153.445 657.652C149.767 659.373 145.391 657.786 143.671 654.108Z" fill="white" fill-opacity="0.6"/>
<path d="M144.577 653.685C143.091 650.507 144.462 646.727 147.639 645.24C150.816 643.754 154.597 645.125 156.083 648.302C157.569 651.48 156.199 655.26 153.021 656.747C149.844 658.233 146.063 656.862 144.577 653.685Z" stroke="white" stroke-opacity="0.6" stroke-width="2"/>
<path d="M120.105 785.716C118.385 782.038 119.972 777.663 123.649 775.942C127.327 774.222 131.703 775.809 133.423 779.486C135.143 783.164 133.557 787.54 129.879 789.26C126.201 790.98 121.826 789.394 120.105 785.716Z" fill="white" fill-opacity="0.6"/>
<path d="M121.011 785.292C119.525 782.115 120.896 778.334 124.073 776.848C127.251 775.362 131.031 776.733 132.517 779.91C134.004 783.087 132.633 786.868 129.455 788.354C126.278 789.841 122.497 788.47 121.011 785.292Z" stroke="white" stroke-opacity="0.6" stroke-width="2"/>
<path d="M184.513 408.938L158.097 421.96L182.583 438.325L184.513 408.938Z" stroke="white" stroke-opacity="0.6" stroke-width="2"/>
<rect x="158.939" y="344.723" width="32.3886" height="32.3886" rx="2" transform="rotate(-25.0687 158.939 344.723)" fill="white" fill-opacity="0.6"/>
<rect x="66.6506" y="363.121" width="26.2696" height="26.2696" rx="8" transform="rotate(-25.0687 66.6506 363.121)" fill="white" fill-opacity="0.6"/>
<path d="M25.6711 373.258C23.9508 369.58 25.5376 365.204 29.2152 363.484C32.8928 361.764 37.2687 363.351 38.989 367.028C40.7092 370.706 39.1225 375.082 35.4449 376.802C31.7672 378.522 27.3914 376.935 25.6711 373.258Z" fill="white" fill-opacity="0.6"/>
<path d="M26.5769 372.834C25.0906 369.657 26.4615 365.876 29.6389 364.39C32.8163 362.904 36.5969 364.274 38.0832 367.452C39.5694 370.629 38.1985 374.41 35.0212 375.896C31.8438 377.382 28.0632 376.011 26.5769 372.834Z" stroke="white" stroke-opacity="0.6" stroke-width="2"/>
<path d="M2.10531 504.865C0.385038 501.188 1.97178 496.812 5.6494 495.092C9.32703 493.371 13.7029 494.958 15.4232 498.636C17.1434 502.313 15.5567 506.689 11.8791 508.409C8.20145 510.13 3.82559 508.543 2.10531 504.865Z" fill="white" fill-opacity="0.6"/>
<path d="M3.01111 504.442C1.52484 501.264 2.89575 497.484 6.07311 495.997C9.25047 494.511 13.0311 495.882 14.5174 499.059C16.0036 502.237 14.6327 506.017 11.4554 507.504C8.27801 508.99 4.49738 507.619 3.01111 504.442Z" stroke="white" stroke-opacity="0.6" stroke-width="2"/>
<defs>
<linearGradient id="paint0_linear_57_6" x1="-361.5" y1="248.5" x2="-198.04" y2="479.188" gradientUnits="userSpaceOnUse">
<stop stop-color="#90EBCA"/>
<stop offset="1" stop-color="#2ACE92"/>
</linearGradient>
<linearGradient id="paint1_linear_57_6" x1="1024" y1="230" x2="1024" y2="53.6505" gradientUnits="userSpaceOnUse">
<stop stop-color="#2ACE92"/>
<stop offset="1" stop-color="#90EBCA"/>
</linearGradient>
<linearGradient id="paint2_linear_57_6" x1="1024" y1="677" x2="1024" y2="853.349" gradientUnits="userSpaceOnUse">
<stop stop-color="#2ACE92"/>
<stop offset="1" stop-color="#90EBCA"/>
</linearGradient>
<clipPath id="clip0_57_6">
<rect width="1024" height="230" fill="white" transform="matrix(-1 0 0 1 1024 0)"/>
</clipPath>
<clipPath id="clip1_57_6">
<rect width="1024" height="230" fill="white" transform="matrix(-1 0 0 -1 1024 907)"/>
</clipPath>
</defs>
</svg>
