<svg width="538" height="211" viewBox="0 0 538 211" fill="none" xmlns="http://www.w3.org/2000/svg">
<path d="M523.461 116.238C523.499 115.662 522.899 115.261 522.381 115.516L512.834 120.222C512.316 120.478 512.269 121.198 512.749 121.519L521.598 127.433C522.078 127.754 522.726 127.435 522.763 126.859L523.461 116.238Z" stroke="black" stroke-width="0.5"/>
<path d="M14.1529 174.968C13.6158 173.525 14.842 172.042 16.3602 172.298L42.1518 176.653C43.6699 176.909 44.3413 178.713 43.3603 179.899L26.6935 200.058C25.7125 201.245 23.8148 200.924 23.2777 199.481L14.1529 174.968Z" fill="url(#paint0_linear_30_4)"/>
<rect x="505.739" y="10.772" width="23.9395" height="23.9395" rx="2" transform="rotate(-25.0687 505.739 10.772)" fill="url(#paint1_linear_30_4)"/>
<rect x="432.665" y="141.025" width="10.2901" height="10.2901" rx="1.5" transform="rotate(-25.0687 432.665 141.025)" stroke="black"/>
<rect x="46.2496" y="33.0287" width="15.3906" height="15.3906" rx="7.69532" transform="rotate(-25.0687 46.2496 33.0287)" fill="url(#paint2_linear_30_4)"/>
<rect x="31.4114" y="35.6339" width="7.90819" height="7.90819" rx="3.9541" transform="rotate(-25.0687 31.4114 35.6339)" stroke="black"/>
<defs>
<linearGradient id="paint0_linear_30_4" x1="-2.01187" y1="179.518" x2="51.6483" y2="170.766" gradientUnits="userSpaceOnUse">
<stop stop-color="#90EBCA"/>
<stop offset="1" stop-color="#2ACE92"/>
</linearGradient>
<linearGradient id="paint1_linear_30_4" x1="507.971" y1="6.66181" x2="533.624" y2="29.0827" gradientUnits="userSpaceOnUse">
<stop stop-color="#90EBCA"/>
<stop offset="1" stop-color="#2ACE92"/>
</linearGradient>
<linearGradient id="paint2_linear_30_4" x1="47.685" y1="30.3862" x2="64.1769" y2="44.8006" gradientUnits="userSpaceOnUse">
<stop stop-color="#90EBCA"/>
<stop offset="1" stop-color="#2ACE92"/>
</linearGradient>
</defs>
</svg>
