<svg width="480" height="58" viewBox="0 0 480 58" fill="none" xmlns="http://www.w3.org/2000/svg">
<path d="M16.1834 40.0329L8.11948 36.0544C6.91138 35.4583 5.51105 36.3936 5.59891 37.7379L6.18531 46.7107C6.27316 48.055 7.7833 48.8001 8.90355 48.0518L16.3811 43.0576C17.5013 42.3094 17.3915 40.629 16.1834 40.0329Z" stroke="black" stroke-width="0.5"/>
<path d="M17.0627 48.096C18.343 47.2409 18.2175 45.3205 16.8368 44.6393L8.77285 40.6607C7.39216 39.9795 5.79179 41.0484 5.89219 42.5847L6.4786 51.5576C6.579 53.0939 8.30487 53.9454 9.58516 53.0903L17.0627 48.096Z" fill="url(#paint0_linear_49_4)"/>
<path d="M464.381 10.5162L454.834 15.2225C454.316 15.4778 454.269 16.1979 454.749 16.5188L463.598 22.4332C464.078 22.754 464.726 22.4349 464.763 21.8588L465.461 11.238C465.499 10.6619 464.899 10.2609 464.381 10.5162Z" stroke="black" stroke-width="0.5"/>
<rect x="455.332" y="41.0025" width="13.3822" height="13.3822" rx="1.75" transform="rotate(-25.0687 455.332 41.0025)" stroke="black" stroke-width="0.5"/>
<rect x="461" y="44.882" width="13.8822" height="13.8822" rx="2" transform="rotate(-25.0687 461 44.882)" fill="url(#paint1_linear_49_4)"/>
<rect x="18" y="5" width="8.47878" height="8.47878" rx="4.23939" transform="rotate(-25.0687 18 5)" fill="url(#paint2_linear_49_4)"/>
<rect x="6.2049" y="3.74118" width="5.17463" height="5.17463" rx="2.58731" transform="rotate(-30 6.2049 3.74118)" stroke="black" stroke-width="0.3"/>
<defs>
<linearGradient id="paint0_linear_49_4" x1="23.5805" y1="53.4274" x2="5.11555" y2="34.8936" gradientUnits="userSpaceOnUse">
<stop stop-color="#90EBCA"/>
<stop offset="1" stop-color="#2ACE92"/>
</linearGradient>
<linearGradient id="paint1_linear_49_4" x1="462.295" y1="42.4985" x2="477.17" y2="55.5001" gradientUnits="userSpaceOnUse">
<stop stop-color="#90EBCA"/>
<stop offset="1" stop-color="#2ACE92"/>
</linearGradient>
<linearGradient id="paint2_linear_49_4" x1="18.7907" y1="3.54426" x2="27.8762" y2="11.4852" gradientUnits="userSpaceOnUse">
<stop stop-color="#90EBCA"/>
<stop offset="1" stop-color="#2ACE92"/>
</linearGradient>
</defs>
</svg>
